<?xml version="1.0" encoding="utf-8"?>
<!-- Generator: Adobe Illustrator 16.0.0, SVG Export Plug-In . SVG Version: 6.00 Build 0)  -->
<!DOCTYPE svg PUBLIC "-//W3C//DTD SVG 1.1//EN" "http://www.w3.org/Graphics/SVG/1.1/DTD/svg11.dtd">
<svg version="1.1" id="Capa_1" xmlns="http://www.w3.org/2000/svg" xmlns:xlink="http://www.w3.org/1999/xlink" x="0px" y="0px"
	 width="1200px" height="819px" viewBox="0 0 1200 819" enable-background="new 0 0 1200 819" xml:space="preserve">
<g>
	<path fill="#FFFFFF" d="M822.527,301.41C814.856,185.166,717.84,92.932,599.688,92.932c-118.183,0-215.216,92.272-222.845,208.559
		C271.182,314.783,190.5,404.8,190.5,512.812c0,117.59,95.667,213.259,213.259,213.259h324.316c9.224,0,16.705-7.481,16.705-16.705
		c0-9.225-7.481-16.705-16.705-16.705H403.759c-99.169-0.003-179.848-80.682-179.848-179.849
		c0-95.43,74.709-174.204,170.081-179.335c8.865-0.477,15.809-7.805,15.809-16.681c0-0.331-0.009-0.657-0.028-0.988
		c0.251-104.509,85.349-189.464,189.916-189.464c104.584,0,189.695,84.969,189.915,189.503c-0.014,0.323-0.024,0.663-0.024,0.916
		c0,8.898,6.974,16.234,15.858,16.683c95.694,4.848,170.651,83.634,170.651,179.363c0,54.365-24.217,105.247-66.442,139.597
		c-7.158,5.821-8.239,16.344-2.417,23.499c5.821,7.158,16.343,8.238,23.499,2.417c50.061-40.723,78.771-101.049,78.771-165.515
		C1009.5,404.463,928.545,314.413,822.527,301.41z"/>
	<path fill="#FFFFFF" d="M582.982,392.795v213.024c0,9.225,7.481,16.705,16.706,16.705c9.224,0,16.705-7.48,16.705-16.705V392.795
		c0-9.225-7.481-16.706-16.705-16.706C590.464,376.089,582.982,383.57,582.982,392.795z"/>
	<path fill="#FFFFFF" d="M695.234,423.771c4.277,0,8.551-1.631,11.814-4.892c6.523-6.523,6.523-17.101,0-23.624l-95.547-95.547
		c-6.523-6.523-17.104-6.523-23.625,0l-95.546,95.547c-6.523,6.523-6.523,17.101,0,23.624s17.104,6.523,23.624,0l83.733-83.733
		l83.732,83.733C686.685,422.141,690.961,423.771,695.234,423.771z"/>
</g>
</svg>
